<?xml version="1.0" standalone="no"?>
<!DOCTYPE svg PUBLIC "-//W3C//DTD SVG 20010904//EN"
 "http://www.w3.org/TR/2001/REC-SVG-20010904/DTD/svg10.dtd">
<svg version="1.0" xmlns="http://www.w3.org/2000/svg"
 width="300.000000pt" height="300.000000pt" viewBox="0 0 300.000000 300.000000"
 preserveAspectRatio="xMidYMid meet">
<metadata>
Created by potrace 1.11, written by Peter Selinger 2001-2013
</metadata>
<g transform="translate(0.000000,300.000000) scale(0.100000,-0.100000)"
fill="#000000" stroke="none">
<path d="M1209 2653 c-13 -15 -12 -15 5 -6 10 6 28 8 39 5 14 -3 18 -1 13 6
-10 17 -41 15 -57 -5z"/>
<path d="M1360 2625 c-23 -24 -50 -102 -50 -143 0 -48 -15 -11 -26 66 -7 43
-12 61 -13 42 -1 -51 24 -180 49 -256 12 -36 20 -67 18 -69 -11 -11 -67 81
-88 144 -13 39 -28 71 -34 71 -6 0 -20 14 -31 30 -22 33 -46 38 -69 14 -21
-21 -20 -26 9 -54 13 -12 23 -26 22 -30 -1 -4 21 -26 50 -49 58 -47 112 -123
143 -201 l21 -52 -28 5 c-15 3 -38 8 -50 12 -28 9 -77 -36 -69 -63 4 -12 -8
-26 -43 -50 -106 -72 -206 -198 -255 -322 -10 -25 -28 -56 -41 -70 -43 -45
-50 -87 -25 -145 5 -11 11 -81 13 -155 4 -113 8 -146 30 -204 44 -118 111
-200 200 -242 30 -14 35 -23 41 -62 3 -24 6 -88 6 -141 l0 -96 -39 -32 c-28
-23 -60 -37 -112 -49 -214 -47 -411 -218 -478 -416 -28 -82 -34 -111 -20 -106
6 2 21 38 34 81 50 176 219 343 408 404 38 13 74 23 79 23 6 0 -5 -17 -24 -37
-84 -94 -159 -218 -192 -319 -22 -66 -36 -154 -25 -154 5 0 9 10 9 23 0 37 35
140 74 218 48 95 101 164 200 256 l81 75 6 -107 c5 -105 5 -106 40 -141 40
-40 84 -53 177 -54 75 0 206 26 245 48 26 16 27 20 27 93 l0 77 51 16 c62 21
96 42 111 69 10 19 9 19 -20 -2 -34 -24 -111 -60 -128 -61 -7 0 -14 11 -16 25
-4 20 1 29 23 42 21 12 29 25 29 45 0 15 5 30 10 33 6 4 8 15 5 26 -5 13 -2
19 10 19 27 0 83 -27 94 -47 9 -16 10 -16 11 -1 0 23 -37 47 -83 55 -46 7 -55
18 -26 34 36 19 300 6 374 -18 47 -16 56 -22 40 -27 -133 -46 -267 -182 -346
-350 -34 -73 -66 -193 -75 -282 -11 -107 11 -73 30 47 16 99 38 170 81 265 21
45 95 142 146 192 48 46 120 85 185 100 37 8 43 7 72 -19 39 -35 39 -42 6 -60
-76 -40 -203 -235 -254 -389 -28 -84 -50 -200 -39 -200 5 0 9 9 9 20 0 36 61
213 102 295 87 174 175 256 306 284 100 21 239 9 327 -29 l47 -20 -25 -30
c-57 -67 -108 -204 -132 -355 -19 -116 -19 -165 -1 -165 10 0 14 11 13 37 -2
109 28 263 68 351 14 29 25 55 25 59 0 14 52 73 64 73 14 0 53 -54 74 -104 20
-45 40 -152 47 -251 8 -126 15 -165 27 -165 24 0 -12 304 -48 415 -33 98 -92
165 -174 196 -66 25 -199 34 -290 21 l-65 -10 -45 43 c-90 86 -198 115 -427
115 l-144 0 3 57 c3 64 0 60 127 132 89 50 205 161 234 224 35 74 51 182 51
337 -1 353 -104 554 -314 614 -130 37 -300 42 -300 10 0 -38 -178 -72 -230
-44 -37 20 -4 31 70 24 55 -5 72 -3 103 14 32 17 34 20 17 25 -10 3 -24 -1
-31 -9 -20 -24 -34 -15 -47 29 -13 43 -3 126 20 171 6 11 12 48 14 83 1 36 10
86 20 113 9 26 15 54 11 62 -10 26 -44 28 -67 3z m334 -485 c70 -11 188 -66
231 -107 108 -103 153 -275 142 -547 -7 -165 -22 -244 -56 -299 -21 -35 -108
-116 -181 -168 -56 -41 -61 -42 -42 -10 13 23 14 33 5 42 -19 19 -108 -84
-156 -180 l-42 -84 0 -116 c0 -64 2 -161 5 -215 l4 -99 -64 -25 c-93 -35 -248
-43 -312 -14 l-45 20 -7 68 c-4 38 -11 162 -15 275 -6 177 -10 211 -27 244
-11 21 -26 41 -34 43 -9 3 -8 -2 3 -19 30 -41 20 -49 -28 -22 -81 45 -148 145
-180 269 -17 67 -30 213 -21 248 6 23 8 24 34 14 40 -16 446 -23 572 -9 167
18 212 39 224 106 l6 30 -12 -27 c-15 -34 -28 -36 -28 -4 0 34 -59 82 -122
101 -89 26 -234 38 -403 33 -120 -4 -150 -2 -120 5 22 6 157 11 300 11 229 1
266 -1 308 -17 26 -10 54 -28 62 -40 8 -12 15 -17 15 -11 0 6 -12 22 -27 36
-52 48 -87 53 -353 51 -247 -3 -298 -6 -358 -25 -18 -5 -36 -8 -38 -5 -8 8 44
107 89 167 44 61 102 119 160 161 36 26 40 27 72 13 57 -23 153 -18 213 12 49
24 52 28 52 65 l0 39 58 0 c31 0 84 -4 116 -10z m-194 -14 c0 -2 3 -11 6 -19
7 -18 -90 -65 -151 -74 -49 -6 -125 13 -125 32 0 7 -3 21 -7 30 -5 15 -3 16
17 5 33 -18 191 -9 221 13 24 16 39 21 39 13z m-19 -470 c129 -23 184 -62 177
-123 -2 -23 -10 -30 -43 -41 -63 -21 -340 -34 -526 -24 -183 9 -223 22 -234
73 -7 32 17 97 39 105 59 23 476 30 587 10z"/>
<path d="M1296 1163 c-6 -83 3 -196 17 -209 3 -3 19 -3 36 1 31 7 31 7 31 74
0 38 -3 102 -6 144 l-7 77 -32 0 -32 0 -7 -87z"/>
<path d="M990 1588 c-65 -9 -90 -21 -76 -35 4 -5 146 -9 314 -11 265 -3 310
-1 327 13 20 15 20 15 1 30 -17 12 -60 15 -260 14 -133 -1 -270 -6 -306 -11z"/>
<path d="M1568 2600 c25 -23 30 -70 8 -70 -14 0 -86 -74 -86 -88 0 -4 11 7 25
24 13 17 38 37 55 44 25 10 30 18 30 45 0 30 -24 65 -45 65 -5 0 1 -9 13 -20z"/>
<path d="M1498 2587 c-28 -24 -103 -145 -95 -153 3 -3 15 15 28 40 12 26 42
66 66 91 45 48 46 61 1 22z"/>
<path d="M1201 2573 c-1 -17 4 -35 9 -38 11 -7 11 9 0 45 -8 24 -8 24 -9 -7z"/>
<path d="M980 2428 c10 -9 130 -68 130 -64 0 7 -83 53 -110 61 -14 4 -23 5
-20 3z"/>
<path d="M1120 2356 c0 -2 8 -10 18 -17 15 -13 16 -12 3 4 -13 16 -21 21 -21
13z"/>
<path d="M1160 2326 c0 -5 8 -16 19 -25 10 -9 37 -43 61 -76 24 -35 39 -49 35
-35 -4 14 -16 36 -25 50 -24 33 -90 96 -90 86z"/>
<path d="M1431 2284 c0 -11 3 -14 6 -6 3 7 2 16 -1 19 -3 4 -6 -2 -5 -13z"/>
<path d="M1421 2234 c0 -11 3 -14 6 -6 3 7 2 16 -1 19 -3 4 -6 -2 -5 -13z"/>
<path d="M1730 625 c0 -8 5 -15 10 -15 6 0 10 7 10 15 0 8 -4 15 -10 15 -5 0
-10 -7 -10 -15z"/>
<path d="M1660 550 c0 -19 3 -21 12 -12 9 9 9 15 0 24 -9 9 -12 7 -12 -12z"/>
</g>
</svg>
